<?xml version="1.0" standalone="no"?>
<!DOCTYPE svg PUBLIC "-//W3C//DTD SVG 20010904//EN"
 "http://www.w3.org/TR/2001/REC-SVG-20010904/DTD/svg10.dtd">
<svg version="1.0" xmlns="http://www.w3.org/2000/svg"
 width="1280.000000pt" height="1280.000000pt" viewBox="0 0 1280.000000 1280.000000"
 preserveAspectRatio="xMidYMid meet">
<metadata>
Created by potrace 1.14, written by Peter Selinger 2001-2017
</metadata>
<g transform="translate(0.000000,1280.000000) scale(0.100000,-0.100000)"
fill="#000000" stroke="none">
<path d="M3029 12575 c-2 -1 -38 -6 -79 -9 -105 -8 -155 -13 -198 -21 -20 -3
-53 -8 -72 -10 -242 -31 -632 -156 -880 -283 -151 -77 -348 -196 -403 -242 -7
-6 -43 -34 -82 -62 -38 -29 -75 -57 -81 -63 -6 -5 -40 -35 -75 -65 -140 -120
-349 -343 -469 -500 -19 -25 -43 -54 -52 -64 -10 -11 -18 -23 -18 -27 0 -4 -6
-14 -13 -21 -15 -15 -176 -257 -205 -308 -11 -19 -39 -69 -62 -110 -118 -205
-259 -558 -286 -715 -2 -17 -7 -38 -10 -47 -6 -20 -9 -39 -18 -101 -4 -27 -10
-59 -13 -70 -3 -12 -6 -112 -8 -223 -2 -214 15 -359 65 -547 36 -134 132 -404
170 -475 5 -10 28 -55 51 -102 55 -110 84 -162 172 -304 79 -128 234 -336 360
-485 90 -106 393 -414 497 -504 30 -27 66 -58 80 -71 146 -129 431 -345 632
-478 170 -113 270 -177 281 -181 4 -1 9 -1327 10 -2947 2 -1620 6 -2954 9
-2965 49 -153 129 -253 248 -312 97 -48 128 -52 398 -53 l252 0 0 23 c1 12 1
1523 1 3357 0 3132 -1 3337 -17 3370 -21 43 -69 107 -103 139 -22 19 -73 54
-203 136 -35 22 -144 94 -153 102 -5 4 -50 37 -100 72 -172 123 -388 297 -540
435 -631 572 -987 1139 -1059 1686 -18 135 -4 336 34 497 69 293 283 650 565
943 70 73 198 190 224 204 9 5 18 12 21 16 12 16 172 122 245 162 81 44 230
113 265 123 3 0 32 9 65 20 73 22 64 20 153 44 39 10 72 17 72 15 0 -2 10 0
23 5 12 5 42 11 67 15 25 3 56 8 69 11 66 13 217 20 411 20 230 -1 340 -8 545
-37 39 -5 81 -11 95 -12 21 -2 54 -8 130 -21 8 -1 35 -6 60 -10 25 -4 54 -9
65 -12 11 -2 31 -6 45 -8 14 -2 54 -10 90 -18 36 -9 81 -18 100 -21 19 -3 53
-11 75 -16 22 -6 47 -12 56 -14 8 -2 46 -12 83 -21 37 -9 72 -18 79 -19 20 -4
100 -26 127 -35 14 -5 43 -14 65 -20 450 -125 913 -340 1096 -509 l50 -47 -83
-86 c-115 -119 -209 -219 -303 -324 -44 -50 -82 -92 -85 -95 -11 -9 -195 -226
-225 -264 -16 -20 -39 -47 -50 -59 -11 -12 -54 -65 -95 -117 -41 -52 -79 -99
-83 -105 -127 -153 -236 -325 -253 -400 -11 -48 -8 -197 5 -240 50 -163 175
-285 344 -337 174 -53 311 5 517 216 260 267 525 516 795 748 220 188 672 544
734 577 11 6 26 17 34 25 24 24 302 212 452 305 276 172 554 323 771 416 60
26 127 55 149 65 63 28 335 120 335 113 0 -3 6 -1 13 4 11 9 194 58 257 69 14
3 32 7 40 9 20 6 77 15 115 20 17 2 59 7 95 12 81 10 438 10 545 0 107 -11
110 -11 245 -33 140 -22 387 -86 475 -124 11 -5 40 -17 65 -26 79 -32 263
-128 330 -174 176 -118 325 -267 434 -433 41 -63 106 -197 106 -219 0 -8 4
-18 8 -23 8 -9 43 -141 57 -210 3 -16 7 -39 9 -50 28 -150 29 -583 1 -725 -3
-14 -8 -45 -11 -70 -19 -145 -91 -404 -164 -586 -43 -107 -127 -283 -163 -339
-112 -178 -237 -317 -402 -449 -38 -31 -75 -60 -82 -66 -27 -22 -212 -139
-288 -181 -163 -91 -385 -189 -595 -264 l-45 -16 2 -3562 c1 -1959 2 -3565 3
-3569 0 -11 506 -9 555 2 22 4 51 11 64 14 88 20 220 135 269 233 59 116 55
-84 55 3211 l0 3043 26 18 c14 9 58 34 97 54 38 19 106 58 150 84 43 27 90 56
104 64 14 8 27 16 30 19 3 3 31 23 64 45 32 21 75 52 95 67 20 16 49 38 66 51
110 82 323 285 407 387 176 215 251 332 376 590 138 285 238 555 297 800 16
63 30 122 33 130 3 8 6 24 8 35 3 21 11 65 19 100 2 11 7 43 10 70 3 28 8 61
11 74 12 54 18 187 18 376 0 210 -5 290 -29 430 -3 17 -8 46 -11 65 -19 123
-92 361 -154 505 -35 81 -132 264 -176 333 -30 45 -54 87 -54 92 0 4 -3 10 -7
12 -5 2 -34 39 -67 82 -63 85 -77 102 -146 179 -383 428 -900 741 -1485 897
-127 34 -323 75 -410 85 -33 4 -69 9 -79 11 -105 19 -569 26 -721 11 -115 -11
-303 -37 -375 -52 -13 -2 -42 -7 -64 -11 -22 -3 -43 -7 -46 -9 -3 -2 -23 -6
-45 -9 -22 -4 -47 -8 -55 -11 -8 -2 -26 -6 -40 -9 -53 -9 -369 -87 -450 -112
-47 -13 -116 -34 -155 -45 -92 -28 -422 -137 -460 -153 -16 -7 -68 -28 -115
-46 -268 -103 -557 -240 -733 -346 -49 -30 -92 -54 -93 -54 -2 0 -31 -20 -65
-45 -34 -25 -64 -45 -68 -45 -4 0 -31 24 -61 53 -44 42 -146 126 -225 185 -13
10 -66 44 -87 57 -148 90 -220 129 -363 199 -271 133 -535 237 -870 341 -272
84 -710 188 -950 225 -102 16 -127 20 -155 25 -14 2 -47 7 -75 10 -27 3 -66 8
-85 10 -19 2 -64 7 -100 10 -36 3 -78 8 -95 11 -35 6 -591 15 -596 9z"/>
<path d="M6857 6748 c-50 -10 -112 -54 -173 -121 -74 -83 -128 -180 -214 -382
-22 -53 -85 -254 -105 -335 -33 -139 -80 -369 -90 -440 -3 -25 -10 -70 -15
-100 -11 -69 -17 -109 -25 -185 -4 -33 -8 -71 -10 -85 -8 -56 -20 -178 -30
-300 -2 -36 -7 -93 -10 -128 -9 -101 -18 -266 -30 -572 -7 -166 -8 -598 -1
-645 16 -114 27 -179 33 -187 2 -5 6 -16 8 -25 15 -76 85 -209 153 -291 22
-26 46 -58 55 -72 14 -22 16 -142 22 -1110 4 -597 6 -1132 6 -1190 0 -198 37
-282 151 -342 58 -31 166 -31 223 -1 79 42 128 108 143 195 4 24 7 1105 5
2403 -1 1298 -2 2712 -3 3143 l0 782 -28 -2 c-15 -1 -44 -6 -65 -10z"/>
<path d="M8105 6532 c-105 -39 -124 -52 -225 -152 -108 -107 -199 -251 -273
-430 -28 -68 -66 -174 -72 -200 -1 -8 -8 -35 -15 -59 -51 -189 -61 -644 -18
-831 38 -167 107 -287 250 -431 65 -65 70 -72 135 -168 185 -278 216 -597 97
-1000 -14 -47 -30 -99 -35 -116 -6 -18 -10 -554 -10 -1357 -1 -1505 -7 -1391
80 -1478 131 -131 344 -97 428 69 l28 56 0 1350 -1 1350 -27 120 c-48 219 -58
296 -57 455 2 321 90 528 329 778 127 133 203 312 211 498 6 162 1 337 -15
464 -3 19 -7 55 -10 80 -3 25 -8 52 -10 60 -2 8 -6 26 -9 40 -17 102 -89 323
-142 442 -97 214 -233 380 -359 440 -89 41 -202 49 -280 20z"/>
<path d="M4596 6411 c-4 -6 -16 -86 -21 -136 -2 -16 -6 -42 -8 -56 -3 -15 -9
-53 -12 -85 -4 -33 -9 -66 -10 -74 -2 -9 -6 -43 -10 -75 -4 -33 -9 -69 -11
-80 -3 -11 -6 -38 -9 -60 -3 -22 -8 -58 -11 -80 -3 -22 -7 -51 -9 -65 -2 -14
-9 -63 -15 -110 -6 -47 -13 -96 -15 -110 -2 -14 -7 -45 -10 -70 -3 -25 -10
-72 -15 -105 -5 -33 -12 -80 -15 -105 -3 -25 -8 -56 -10 -70 -24 -137 -25
-282 -1 -377 16 -64 85 -219 104 -233 4 -3 19 -21 34 -42 15 -20 33 -42 40
-50 108 -112 213 -280 247 -393 7 -22 15 -47 18 -55 3 -8 7 -22 9 -30 2 -8 6
-31 10 -50 13 -58 14 -71 17 -183 3 -101 -3 -186 -18 -267 -4 -19 -9 -44 -10
-55 -2 -11 -20 -83 -40 -160 l-38 -140 0 -1335 0 -1335 22 -49 c24 -55 83
-115 137 -141 49 -23 139 -27 194 -8 86 29 163 114 178 195 8 47 7 2654 -1
2710 -4 26 -9 53 -12 60 -2 7 -6 29 -9 48 -3 19 -8 46 -11 60 -10 48 -15 80
-31 200 -7 56 -6 316 1 350 3 14 8 43 11 65 16 104 89 286 157 384 24 36 121
156 147 181 59 58 119 195 137 312 12 72 5 234 -12 298 -2 8 -6 38 -10 65 -3
28 -8 64 -10 80 -3 17 -7 42 -9 56 -2 15 -7 53 -11 85 -4 33 -9 70 -11 84 -3
14 -12 75 -20 135 -8 61 -17 121 -19 135 -6 37 -25 169 -30 215 -3 22 -8 58
-12 80 -4 22 -7 47 -8 55 -1 8 -5 40 -10 70 -4 30 -9 66 -11 80 -3 30 -17 122
-20 133 -1 4 -2 18 -3 33 -1 24 -4 25 -48 22 l-48 -3 1 -95 c2 -119 14 -695
19 -940 3 -102 7 -283 10 -403 l5 -218 -28 2 c-15 2 -32 1 -37 -3 -6 -3 -19
-4 -30 -2 -11 2 -35 4 -52 6 l-33 2 -1 121 c0 66 -2 170 -4 230 -2 61 -6 254
-9 430 -4 176 -9 437 -12 580 -3 143 -6 268 -6 277 1 13 -9 16 -53 16 l-53 -1
0 -811 c-1 -446 -1 -821 -1 -833 -1 -22 -5 -23 -79 -23 l-79 0 -2 288 c-4 544
-10 1137 -11 1258 l-2 121 -54 2 -54 1 0 -63 c-1 -68 -5 -272 -15 -782 -4
-181 -8 -422 -10 -535 -2 -113 -4 -224 -4 -247 l-1 -43 -85 0 -86 0 6 243 c3
133 8 337 10 452 11 503 15 689 19 826 l5 146 -45 0 c-25 0 -46 -3 -48 -6z"/>
</g>
</svg>
